<svg aria-hidden="true" style="position: absolute; width: 0; height: 0; overflow: hidden;" version="1.1" xmlns="http://www.w3.org/2000/svg" xmlns:xlink="http://www.w3.org/1999/xlink">
<defs>
<symbol id="kapusta" viewBox="0 0 26 24">
<path  d="M24.527 10.905c0 1.048-0.227 2.077-0.68 3.078-0.523 1.155-1.165 2.264-1.909 3.297-0.033 0.045-0.067 0.088-0.104 0.128l0.894 1.111c0.062 0.077 0.069 0.185 0.017 0.269-0.024 0.038-0.588 0.952-1.491 1.725-0.906 0.776-1.796 1.116-1.833 1.13-0.081 0.031-0.173 0.014-0.238-0.044l-0.772-0.683c-0.019-0.017-0.034-0.036-0.046-0.056-0.68 0.349-1.944 0.817-4.026 0.986-1.843 0.149-3.355-0.084-4.493-0.693-0.061-0.033-0.161-0.081-0.268-0.133-0.184-0.089-0.375-0.182-0.479-0.245-0.103-0.063-0.221-0.131-0.352-0.207-1.017-0.588-2.91-1.681-4.353-4.18-1.223-2.118-1.35-3.171-1.462-4.101-0.067-0.553-0.124-1.030-0.412-1.673-0.732-1.635-1.331-1.962-1.337-1.965-0.060-0.031-0.105-0.087-0.121-0.153s-0.006-0.135 0.033-0.191c0.119-0.171 0.74-1.026 1.341-1.036 0.291-0.005 0.491 0.096 0.636 0.17 0.149 0.076 0.153 0.073 0.195 0.041 0.046-0.034 0.071-0.097 0.108-0.196 0.089-0.236 0.223-0.593 0.913-0.609 0.549-0.013 0.856 0.276 1.079 0.512 0.233-0.466 0.867-1.661 1.699-2.609 0.537-0.612 1.165-1.093 1.597-1.388 0.33-0.225 0.547-0.361 0.696-0.438-0.164-0.302-0.234-0.507-0.289-0.667-0.064-0.187-0.1-0.29-0.25-0.452-0.5-0.539-0.107-1.419-0.033-1.526 0.042-0.060 0.107-0.099 0.179-0.107 0.135-0.015 0.218 0.062 0.369 0.201 0.251 0.232 0.774 0.715 1.661 0.946 0.795 0.208 1.718 0.164 2.533 0.126 0.514-0.024 1-0.047 1.384-0.001 1.255 0.151 3.868 0.466 6.016 2.392 1.027 0.921 1.924 2.077 2.553 3.272 0.016 0.021 0.028 0.044 0.036 0.069 0.152 0.295 0.288 0.592 0.406 0.888 0.403 1.016 0.604 2.021 0.604 3.009zM23.926 12.192c0.328-1.752-0.065-3.457-0.817-4.944-0.21-0.103-0.913-0.401-1.975-0.379-1.252 0.026-1.647 0.243-1.651 0.245-0.111 0.063-0.254 0.027-0.32-0.082s-0.034-0.25 0.074-0.318c0.046-0.029 0.493-0.285 1.887-0.314 0.692-0.014 1.244 0.094 1.634 0.211-0.604-1.009-1.362-1.895-2.143-2.595-0.405-0.364-0.83-0.667-1.259-0.92-0.21 0.086-0.817 0.279-1.835 0.174-1.186-0.122-1.833-0.167-1.84-0.168-0.129-0.009-0.226-0.123-0.218-0.25 0.009-0.129 0.121-0.227 0.25-0.218 0.007 0 0.66 0.046 1.856 0.169 0.523 0.054 0.919 0.021 1.192-0.028-1.535-0.75-3.048-0.932-3.905-1.035-0.345-0.042-0.812-0.020-1.306 0.003-0.849 0.040-1.81 0.085-2.674-0.141-0.924-0.241-1.49-0.717-1.791-0.991-0.057 0.218-0.087 0.526 0.078 0.704 0.218 0.235 0.279 0.413 0.35 0.619 0.067 0.195 0.15 0.437 0.411 0.859 0.241 0.389 0.557 0.399 1.053 0.382 0.328-0.011 0.7-0.024 1.028 0.167 0.575 0.335 0.443 0.742 0.356 1.011-0.047 0.146-0.088 0.273-0.058 0.405 0.101 0.012 0.386-0.074 0.597-0.139 0.486-0.148 1.151-0.35 1.822-0.241 0.375 0.061 0.604 0.174 0.722 0.354 0.137 0.21 0.080 0.434 0.033 0.613-0.061 0.236-0.055 0.282 0.043 0.35 0.376 0.259 0.719 0.332 1.194 0.432 0.2 0.042 0.427 0.090 0.682 0.159 0.399 0.107 0.677 0.311 0.829 0.608 0.23 0.451 0.167 1.101-0.199 2.045-0.308 0.796-0.379 1.52-0.384 1.987 0 0.002 0 0.005 0 0.007 0 0.204 0.095 0.388 0.244 0.59 1.299 1.354 2.032 2.844 2.098 4.313 0.013 0.284 0.002 0.583-0.026 0.885 0.083 0.33 0.338 0.529 0.582 0.61 0.304 0.101 0.73 0.068 1.016-0.329 0.726-1.008 1.352-2.089 1.862-3.216 0.154-0.34 0.277-0.681 0.372-1.021-0.113-0.15-0.663-0.842-1.612-1.481-0.112 0.049-0.79 0.338-1.39 0.373-0.299 0.017-0.684 0.027-0.818-0.023l0.165-0.439c0 0-0.005-0.003-0.019-0.006 0.005 0.001 0.138 0.029 0.645-0 0.315-0.018 0.67-0.124 0.918-0.213-1.237-0.713-1.678-0.818-1.682-0.819-0.125-0.028-0.206-0.153-0.179-0.278s0.149-0.206 0.275-0.181c0.051 0.010 0.538 0.124 1.921 0.93 0.938 0.546 1.577 1.181 1.91 1.561zM19.384 21.15c0.268-0.119 0.918-0.439 1.565-0.994s1.119-1.201 1.307-1.477l-0.707-0.878c-0.247 0.321-0.649 0.837-0.932 1.166-0.748 0.87-1.609 1.497-1.646 1.523-0.015 0.011-0.031 0.019-0.047 0.026-0.036 0.027-0.083 0.061-0.143 0.101l0.602 0.532zM19.336 19.59c0.281-0.247 0.616-0.567 0.926-0.928 0.19-0.22 0.439-0.534 0.656-0.812-0.172 0.010-0.35-0.013-0.525-0.071-0.207-0.069-0.386-0.179-0.531-0.32-0.136 0.808-0.353 1.584-0.526 2.13zM18.655 20.132c0.118-0.321 0.681-1.917 0.829-3.386-0.017-0.092-0.024-0.187-0.023-0.284 0.008-0.453-0.024-0.886-0.097-1.286-0.269-1.47-1.075-2.428-1.556-3.001-0.085-0.101-0.161-0.191-0.224-0.272-0.020-0.025-0.040-0.051-0.059-0.077-0.391-0.405-0.837-0.798-1.333-1.174-1.963-1.488-2.902-1.395-3.353-1.351l-0.066 0.006c-0.117 0.010-0.328 0.076-0.552 0.145-0.582 0.18-1.378 0.427-1.965 0.194-0.542-0.215-0.591-0.763-0.638-1.292-0.034-0.38-0.069-0.772-0.272-1.079-0.436-0.656-1.556-0.325-2.15-0.027-0.235 0.118-0.411 0.264-0.566 0.392-0.267 0.22-0.542 0.447-0.958 0.343-0.266-0.066-0.437-0.25-0.603-0.428-0.211-0.225-0.393-0.42-0.769-0.411-0.373 0.009-0.412 0.114-0.484 0.306-0.048 0.128-0.108 0.288-0.265 0.406-0.28 0.21-0.517 0.090-0.69 0.002-0.124-0.063-0.241-0.122-0.416-0.119-0.22 0.003-0.576 0.343-0.824 0.649 0.279 0.238 0.775 0.795 1.33 2.035 0.317 0.708 0.381 1.242 0.45 1.808 0.107 0.885 0.228 1.888 1.402 3.923 1.38 2.39 3.133 3.403 4.181 4.008 0.135 0.078 0.256 0.148 0.362 0.213 0.085 0.052 0.281 0.147 0.439 0.223 0.115 0.056 0.22 0.107 0.285 0.142 0.98 0.525 2.275 0.748 3.854 0.664-1.183-0.351-2.943-1.068-4.578-2.487-2.741-2.378-4.237-6.999-4.299-7.195-0.039-0.124 0.029-0.255 0.153-0.294s0.256 0.029 0.295 0.152c0.014 0.044 1.374 4.245 3.777 6.628 0.152-0.462 0.457-1.534 0.287-2.28-0.070-0.307-0.137-0.572-0.195-0.806-0.146-0.579-0.251-0.997-0.27-1.489-0-0.003-0-0.006-0-0.009 0-0.125 0.099-0.229 0.226-0.234 0.13-0.005 0.239 0.096 0.244 0.225 0.017 0.422 0.108 0.803 0.236 1.315l0.439-0.457c0.090-0.093 0.238-0.096 0.332-0.007s0.097 0.238 0.007 0.332l-0.644 0.67c0.027 0.112 0.055 0.23 0.084 0.356 0.233 1.020-0.266 2.457-0.369 2.734 0.002 0.002 0.004 0.004 0.006 0.006 0.877 0.761 1.801 1.313 2.643 1.711-0.341-0.625-0.78-1.646-0.455-2.295 0.216-0.431 0.603-0.76 0.978-1.077 0.41-0.347 0.797-0.675 0.943-1.105 0.042-0.123 0.175-0.188 0.298-0.147s0.189 0.174 0.147 0.297c-0.187 0.553-0.643 0.939-1.084 1.312-0.16 0.136-0.316 0.268-0.455 0.404 0.305 0.098 0.882 0.262 1.353 0.268 0.671 0.008 1.62-0.327 1.63-0.33 0.122-0.043 0.256 0.020 0.3 0.142s-0.020 0.256-0.142 0.3c-0.042 0.015-1.038 0.366-1.793 0.358-0.663-0.007-1.463-0.276-1.674-0.352-0.030 0.046-0.057 0.092-0.081 0.14-0.292 0.585 0.457 1.929 0.743 2.354 0.011 0.016 0.019 0.033 0.026 0.050 1.336 0.53 2.327 0.658 2.344 0.66 0.002 0 0.004 0.001 0.007 0.001 2.125-0.323 3.075-0.97 3.275-1.122zM17.174 10.847c0.012-0.507 0.097-1.256 0.414-2.075 0.306-0.789 0.379-1.349 0.218-1.664-0.089-0.176-0.263-0.296-0.531-0.368-0.243-0.065-0.454-0.11-0.658-0.153-0.488-0.103-0.91-0.192-1.363-0.505-0.383-0.264-0.288-0.632-0.231-0.852 0.024-0.095 0.052-0.203 0.028-0.24-0.010-0.015-0.076-0.093-0.404-0.147-0.563-0.092-1.143 0.085-1.609 0.227-0.432 0.132-0.745 0.227-0.978 0.097-0.072-0.040-0.166-0.12-0.207-0.275-0.071-0.27 0.002-0.498 0.062-0.681 0.083-0.256 0.103-0.318-0.146-0.462-0.211-0.123-0.485-0.114-0.775-0.104-0.446 0.015-0.995 0.035-1.388-0.486-0.309 0.17-1.362 0.79-2.187 1.731-0.868 0.989-1.532 2.303-1.687 2.622 0.018 0.008 0.036 0.014 0.054 0.019 0.171 0.043 0.273-0.026 0.545-0.25 0.166-0.137 0.373-0.308 0.654-0.449 0.909-0.457 2.175-0.683 2.752 0.186 0.269 0.405 0.311 0.879 0.348 1.296 0.045 0.504 0.083 0.794 0.344 0.898 0.434 0.172 1.138-0.046 1.653-0.206 0.259-0.080 0.482-0.149 0.649-0.164l0.062-0.006c0.511-0.050 1.573-0.155 3.683 1.444 0.245 0.186 0.478 0.375 0.699 0.568z"></path>
<path  stroke-linejoin="miter" stroke-linecap="butt" stroke-miterlimit="4" stroke-width="0.5275" d="M24.527 10.905c0 1.048-0.227 2.077-0.68 3.078-0.523 1.155-1.165 2.264-1.909 3.297-0.033 0.045-0.067 0.088-0.104 0.128l0.894 1.111c0.062 0.077 0.069 0.185 0.017 0.269-0.024 0.038-0.588 0.952-1.491 1.725-0.906 0.776-1.796 1.116-1.833 1.13-0.081 0.031-0.173 0.014-0.238-0.044l-0.772-0.683c-0.019-0.017-0.034-0.036-0.046-0.056-0.68 0.349-1.944 0.817-4.026 0.986-1.843 0.149-3.355-0.084-4.493-0.693-0.061-0.033-0.161-0.081-0.268-0.133-0.184-0.089-0.375-0.182-0.479-0.245-0.103-0.063-0.221-0.131-0.352-0.207-1.017-0.588-2.91-1.681-4.353-4.18-1.223-2.118-1.35-3.171-1.462-4.101-0.067-0.553-0.124-1.030-0.412-1.673-0.732-1.635-1.331-1.962-1.337-1.965-0.060-0.031-0.105-0.087-0.121-0.153s-0.006-0.135 0.033-0.191c0.119-0.171 0.74-1.026 1.341-1.036 0.291-0.005 0.491 0.096 0.636 0.17 0.149 0.076 0.153 0.073 0.195 0.041 0.046-0.034 0.071-0.097 0.108-0.196 0.089-0.236 0.223-0.593 0.913-0.609 0.549-0.013 0.856 0.276 1.079 0.512 0.233-0.466 0.867-1.661 1.699-2.609 0.537-0.612 1.165-1.093 1.597-1.388 0.33-0.225 0.547-0.361 0.696-0.438-0.164-0.302-0.234-0.507-0.289-0.667-0.064-0.187-0.1-0.29-0.25-0.452-0.5-0.539-0.107-1.419-0.033-1.526 0.042-0.060 0.107-0.099 0.179-0.107 0.135-0.015 0.218 0.062 0.369 0.201 0.251 0.232 0.774 0.715 1.661 0.946 0.795 0.208 1.718 0.164 2.533 0.126 0.514-0.024 1-0.047 1.384-0.001 1.255 0.151 3.868 0.466 6.016 2.392 1.027 0.921 1.924 2.077 2.553 3.272 0.016 0.021 0.028 0.044 0.036 0.069 0.152 0.295 0.288 0.592 0.406 0.888 0.403 1.016 0.604 2.021 0.604 3.009zM23.926 12.192c0.328-1.752-0.065-3.457-0.817-4.944-0.21-0.103-0.913-0.401-1.975-0.379-1.252 0.026-1.647 0.243-1.651 0.245-0.111 0.063-0.254 0.027-0.32-0.082s-0.034-0.25 0.074-0.318c0.046-0.029 0.493-0.285 1.887-0.314 0.692-0.014 1.244 0.094 1.634 0.211-0.604-1.009-1.362-1.895-2.143-2.595-0.405-0.364-0.83-0.667-1.259-0.92-0.21 0.086-0.817 0.279-1.835 0.174-1.186-0.122-1.833-0.167-1.84-0.168-0.129-0.009-0.226-0.123-0.218-0.25 0.009-0.129 0.121-0.227 0.25-0.218 0.007 0 0.66 0.046 1.856 0.169 0.523 0.054 0.919 0.021 1.192-0.028-1.535-0.75-3.048-0.932-3.905-1.035-0.345-0.042-0.812-0.020-1.306 0.003-0.849 0.040-1.81 0.085-2.674-0.141-0.924-0.241-1.49-0.717-1.791-0.991-0.057 0.218-0.087 0.526 0.078 0.704 0.218 0.235 0.279 0.413 0.35 0.619 0.067 0.195 0.15 0.437 0.411 0.859 0.241 0.389 0.557 0.399 1.053 0.382 0.328-0.011 0.7-0.024 1.028 0.167 0.575 0.335 0.443 0.742 0.356 1.011-0.047 0.146-0.088 0.273-0.058 0.405 0.101 0.012 0.386-0.074 0.597-0.139 0.486-0.148 1.151-0.35 1.822-0.241 0.375 0.061 0.604 0.174 0.722 0.354 0.137 0.21 0.080 0.434 0.033 0.613-0.061 0.236-0.055 0.282 0.043 0.35 0.376 0.259 0.719 0.332 1.194 0.432 0.2 0.042 0.427 0.090 0.682 0.159 0.399 0.107 0.677 0.311 0.829 0.608 0.23 0.451 0.167 1.101-0.199 2.045-0.308 0.796-0.379 1.52-0.384 1.987 0 0.002 0 0.005 0 0.007 0 0.204 0.095 0.388 0.244 0.59 1.299 1.354 2.032 2.844 2.098 4.313 0.013 0.284 0.002 0.583-0.026 0.885 0.083 0.33 0.338 0.529 0.582 0.61 0.304 0.101 0.73 0.068 1.016-0.329 0.726-1.008 1.352-2.089 1.862-3.216 0.154-0.34 0.277-0.681 0.372-1.021-0.113-0.15-0.663-0.842-1.612-1.481-0.112 0.049-0.79 0.338-1.39 0.373-0.299 0.017-0.684 0.027-0.818-0.023l0.165-0.439c0 0-0.005-0.003-0.019-0.006 0.005 0.001 0.138 0.029 0.645-0 0.315-0.018 0.67-0.124 0.918-0.213-1.237-0.713-1.678-0.818-1.682-0.819-0.125-0.028-0.206-0.153-0.179-0.278s0.149-0.206 0.275-0.181c0.051 0.010 0.538 0.124 1.921 0.93 0.938 0.546 1.577 1.181 1.91 1.561zM19.384 21.15c0.268-0.119 0.918-0.439 1.565-0.994s1.119-1.201 1.307-1.477l-0.707-0.878c-0.247 0.321-0.649 0.837-0.932 1.166-0.748 0.87-1.609 1.497-1.646 1.523-0.015 0.011-0.031 0.019-0.047 0.026-0.036 0.027-0.083 0.061-0.143 0.101l0.602 0.532zM19.336 19.59c0.281-0.247 0.616-0.567 0.926-0.928 0.19-0.22 0.439-0.534 0.656-0.812-0.172 0.010-0.35-0.013-0.525-0.071-0.207-0.069-0.386-0.179-0.531-0.32-0.136 0.808-0.353 1.584-0.526 2.13zM18.655 20.132c0.118-0.321 0.681-1.917 0.829-3.386-0.017-0.092-0.024-0.187-0.023-0.284 0.008-0.453-0.024-0.886-0.097-1.286-0.269-1.47-1.075-2.428-1.556-3.001-0.085-0.101-0.161-0.191-0.224-0.272-0.020-0.025-0.040-0.051-0.059-0.077-0.391-0.405-0.837-0.798-1.333-1.174-1.963-1.488-2.902-1.395-3.353-1.351l-0.066 0.006c-0.117 0.010-0.328 0.076-0.552 0.145-0.582 0.18-1.378 0.427-1.965 0.194-0.542-0.215-0.591-0.763-0.638-1.292-0.034-0.38-0.069-0.772-0.272-1.079-0.436-0.656-1.556-0.325-2.15-0.027-0.235 0.118-0.411 0.264-0.566 0.392-0.267 0.22-0.542 0.447-0.958 0.343-0.266-0.066-0.437-0.25-0.603-0.428-0.211-0.225-0.393-0.42-0.769-0.411-0.373 0.009-0.412 0.114-0.484 0.306-0.048 0.128-0.108 0.288-0.265 0.406-0.28 0.21-0.517 0.090-0.69 0.002-0.124-0.063-0.241-0.122-0.416-0.119-0.22 0.003-0.576 0.343-0.824 0.649 0.279 0.238 0.775 0.795 1.33 2.035 0.317 0.708 0.381 1.242 0.45 1.808 0.107 0.885 0.228 1.888 1.402 3.923 1.38 2.39 3.133 3.403 4.181 4.008 0.135 0.078 0.256 0.148 0.362 0.213 0.085 0.052 0.281 0.147 0.439 0.223 0.115 0.056 0.22 0.107 0.285 0.142 0.98 0.525 2.275 0.748 3.854 0.664-1.183-0.351-2.943-1.068-4.578-2.487-2.741-2.378-4.237-6.999-4.299-7.195-0.039-0.124 0.029-0.255 0.153-0.294s0.256 0.029 0.295 0.152c0.014 0.044 1.374 4.245 3.777 6.628 0.152-0.462 0.457-1.534 0.287-2.28-0.070-0.307-0.137-0.572-0.195-0.806-0.146-0.579-0.251-0.997-0.27-1.489-0-0.003-0-0.006-0-0.009 0-0.125 0.099-0.229 0.226-0.234 0.13-0.005 0.239 0.096 0.244 0.225 0.017 0.422 0.108 0.803 0.236 1.315l0.439-0.457c0.090-0.093 0.238-0.096 0.332-0.007s0.097 0.238 0.007 0.332l-0.644 0.67c0.027 0.112 0.055 0.23 0.084 0.356 0.233 1.020-0.266 2.457-0.369 2.734 0.002 0.002 0.004 0.004 0.006 0.006 0.877 0.761 1.801 1.313 2.643 1.711-0.341-0.625-0.78-1.646-0.455-2.295 0.216-0.431 0.603-0.76 0.978-1.077 0.41-0.347 0.797-0.675 0.943-1.105 0.042-0.123 0.175-0.188 0.298-0.147s0.189 0.174 0.147 0.297c-0.187 0.553-0.643 0.939-1.084 1.312-0.16 0.136-0.316 0.268-0.455 0.404 0.305 0.098 0.882 0.262 1.353 0.268 0.671 0.008 1.62-0.327 1.63-0.33 0.122-0.043 0.256 0.020 0.3 0.142s-0.020 0.256-0.142 0.3c-0.042 0.015-1.038 0.366-1.793 0.358-0.663-0.007-1.463-0.276-1.674-0.352-0.030 0.046-0.057 0.092-0.081 0.14-0.292 0.585 0.457 1.929 0.743 2.354 0.011 0.016 0.019 0.033 0.026 0.050 1.336 0.53 2.327 0.658 2.344 0.66 0.002 0 0.004 0.001 0.007 0.001 2.125-0.323 3.075-0.97 3.275-1.122zM17.174 10.847c0.012-0.507 0.097-1.256 0.414-2.075 0.306-0.789 0.379-1.349 0.218-1.664-0.089-0.176-0.263-0.296-0.531-0.368-0.243-0.065-0.454-0.11-0.658-0.153-0.488-0.103-0.91-0.192-1.363-0.505-0.383-0.264-0.288-0.632-0.231-0.852 0.024-0.095 0.052-0.203 0.028-0.24-0.010-0.015-0.076-0.093-0.404-0.147-0.563-0.092-1.143 0.085-1.609 0.227-0.432 0.132-0.745 0.227-0.978 0.097-0.072-0.040-0.166-0.12-0.207-0.275-0.071-0.27 0.002-0.498 0.062-0.681 0.083-0.256 0.103-0.318-0.146-0.462-0.211-0.123-0.485-0.114-0.775-0.104-0.446 0.015-0.995 0.035-1.388-0.486-0.309 0.17-1.362 0.79-2.187 1.731-0.868 0.989-1.532 2.303-1.687 2.622 0.018 0.008 0.036 0.014 0.054 0.019 0.171 0.043 0.273-0.026 0.545-0.25 0.166-0.137 0.373-0.308 0.654-0.449 0.909-0.457 2.175-0.683 2.752 0.186 0.269 0.405 0.311 0.879 0.348 1.296 0.045 0.504 0.083 0.794 0.344 0.898 0.434 0.172 1.138-0.046 1.653-0.206 0.259-0.080 0.482-0.149 0.649-0.164l0.062-0.006c0.511-0.050 1.573-0.155 3.683 1.444 0.245 0.186 0.478 0.375 0.699 0.568z"></path>
</symbol>
</defs>
</svg>
